<mxfile host="65bd71144e">
    <diagram id="lFBXlfoR0omOy6iRZDWm" name="Page-1">
        <mxGraphModel dx="529" dy="932" grid="1" gridSize="10" guides="1" tooltips="1" connect="1" arrows="1" fold="1" page="1" pageScale="1" pageWidth="850" pageHeight="1100" math="0" shadow="0">
            <root>
                <mxCell id="0"/>
                <mxCell id="1" parent="0"/>
                <mxCell id="2" value="Client" style="outlineConnect=0;dashed=0;verticalLabelPosition=bottom;verticalAlign=top;align=center;html=1;shape=mxgraph.aws3.mobile_client;fillColor=#D2D3D3;gradientColor=none;" parent="1" vertex="1">
                    <mxGeometry x="132.25" y="310" width="40.5" height="60" as="geometry"/>
                </mxCell>
                <mxCell id="5" value="Web Browser" style="aspect=fixed;html=1;points=[];align=center;image;fontSize=12;image=img/lib/azure2/general/Browser.svg;" parent="1" vertex="1">
                    <mxGeometry x="120" y="490" width="65" height="52" as="geometry"/>
                </mxCell>
                <mxCell id="6" value="Vision Analyzer" style="shape=hexagon;perimeter=hexagonPerimeter2;whiteSpace=wrap;html=1;fixedSize=1;rotation=0;" vertex="1" parent="1">
                    <mxGeometry x="440" y="200" width="80" height="80" as="geometry"/>
                </mxCell>
                <mxCell id="7" value="Audio Analyzer" style="shape=hexagon;perimeter=hexagonPerimeter2;whiteSpace=wrap;html=1;fixedSize=1;rotation=0;" vertex="1" parent="1">
                    <mxGeometry x="440" y="300" width="80" height="80" as="geometry"/>
                </mxCell>
                <mxCell id="9" style="edgeStyle=none;html=1;dashed=1;endArrow=none;endFill=0;" edge="1" parent="1" source="8" target="6">
                    <mxGeometry relative="1" as="geometry"/>
                </mxCell>
                <mxCell id="8" value="Analyze images and videos" style="shape=note2;boundedLbl=1;whiteSpace=wrap;html=1;size=25;verticalAlign=top;align=center;" vertex="1" parent="1">
                    <mxGeometry x="580" y="50" width="120" height="60" as="geometry"/>
                </mxCell>
                <mxCell id="10" value="Obstacle Analyzer" style="shape=hexagon;perimeter=hexagonPerimeter2;whiteSpace=wrap;html=1;fixedSize=1;rotation=0;" vertex="1" parent="1">
                    <mxGeometry x="440" y="400" width="80" height="80" as="geometry"/>
                </mxCell>
                <mxCell id="11" value="Brain Core" style="shape=hexagon;perimeter=hexagonPerimeter2;whiteSpace=wrap;html=1;fixedSize=1;rotation=0;" vertex="1" parent="1">
                    <mxGeometry x="440" y="510" width="80" height="80" as="geometry"/>
                </mxCell>
                <mxCell id="23" value="" style="group" vertex="1" connectable="0" parent="1">
                    <mxGeometry x="240" y="720" width="495" height="260" as="geometry"/>
                </mxCell>
                <mxCell id="12" value="Database #1" style="shape=cylinder3;whiteSpace=wrap;html=1;boundedLbl=1;backgroundOutline=1;size=15;" vertex="1" parent="23">
                    <mxGeometry x="10" width="60" height="80" as="geometry"/>
                </mxCell>
                <mxCell id="13" value="Database #2" style="shape=cylinder3;whiteSpace=wrap;html=1;boundedLbl=1;backgroundOutline=1;size=15;" vertex="1" parent="23">
                    <mxGeometry x="140" width="60" height="80" as="geometry"/>
                </mxCell>
                <mxCell id="14" value="Database #3" style="shape=cylinder3;whiteSpace=wrap;html=1;boundedLbl=1;backgroundOutline=1;size=15;" vertex="1" parent="23">
                    <mxGeometry x="270" width="60" height="80" as="geometry"/>
                </mxCell>
                <mxCell id="18" value="" style="group" vertex="1" connectable="0" parent="23">
                    <mxGeometry x="360" y="35" width="40" height="10" as="geometry"/>
                </mxCell>
                <mxCell id="15" value="" style="strokeWidth=2;html=1;shape=mxgraph.flowchart.start_2;whiteSpace=wrap;fillStyle=solid;strokeColor=none;fillColor=#FFFFFF;" vertex="1" parent="18">
                    <mxGeometry width="10" height="10" as="geometry"/>
                </mxCell>
                <mxCell id="16" value="" style="strokeWidth=2;html=1;shape=mxgraph.flowchart.start_2;whiteSpace=wrap;fillStyle=solid;strokeColor=none;fillColor=#FFFFFF;" vertex="1" parent="18">
                    <mxGeometry x="15" width="10" height="10" as="geometry"/>
                </mxCell>
                <mxCell id="17" value="" style="strokeWidth=2;html=1;shape=mxgraph.flowchart.start_2;whiteSpace=wrap;fillStyle=solid;strokeColor=none;fillColor=#FFFFFF;" vertex="1" parent="18">
                    <mxGeometry x="30" width="10" height="10" as="geometry"/>
                </mxCell>
                <mxCell id="19" value="Database #n" style="shape=cylinder3;whiteSpace=wrap;html=1;boundedLbl=1;backgroundOutline=1;size=15;" vertex="1" parent="23">
                    <mxGeometry x="420" width="60" height="80" as="geometry"/>
                </mxCell>
                <mxCell id="20" value="" style="strokeWidth=2;html=1;shape=mxgraph.flowchart.annotation_2;align=left;labelPosition=right;pointerEvents=1;fillStyle=solid;fillColor=#FFFFFF;rotation=-90;" vertex="1" parent="23">
                    <mxGeometry x="222.5" y="-107.5" width="50" height="495" as="geometry"/>
                </mxCell>
                <mxCell id="22" style="edgeStyle=none;html=1;entryX=0;entryY=0.5;entryDx=0;entryDy=0;entryPerimeter=0;dashed=1;endArrow=none;endFill=0;" edge="1" parent="23" source="21" target="20">
                    <mxGeometry relative="1" as="geometry"/>
                </mxCell>
                <mxCell id="21" value="Needed databases according to application demand" style="shape=note2;boundedLbl=1;whiteSpace=wrap;html=1;size=25;verticalAlign=top;align=center;" vertex="1" parent="23">
                    <mxGeometry x="187.5" y="180" width="120" height="80" as="geometry"/>
                </mxCell>
                <mxCell id="25" style="edgeStyle=none;html=1;entryX=1;entryY=0.25;entryDx=0;entryDy=0;dashed=1;endArrow=none;endFill=0;" edge="1" parent="1" source="24" target="7">
                    <mxGeometry relative="1" as="geometry"/>
                </mxCell>
                <mxCell id="24" value="Analyze audio" style="shape=note2;boundedLbl=1;whiteSpace=wrap;html=1;size=25;verticalAlign=top;align=center;" vertex="1" parent="1">
                    <mxGeometry x="580" y="150" width="120" height="60" as="geometry"/>
                </mxCell>
                <mxCell id="27" style="edgeStyle=none;html=1;entryX=1;entryY=0.25;entryDx=0;entryDy=0;dashed=1;endArrow=none;endFill=0;" edge="1" parent="1" source="26" target="10">
                    <mxGeometry relative="1" as="geometry"/>
                </mxCell>
                <mxCell id="26" value="Analyze obstacle by reading sensors, images, or videos" style="shape=note2;boundedLbl=1;whiteSpace=wrap;html=1;size=25;verticalAlign=top;align=center;" vertex="1" parent="1">
                    <mxGeometry x="580" y="250" width="120" height="80" as="geometry"/>
                </mxCell>
                <mxCell id="28" value="&amp;nbsp;Rafeeq" style="shape=mxgraph.signs.transportation.car_2;html=1;pointerEvents=1;fillColor=#1ba1e2;strokeColor=#006EAF;verticalLabelPosition=bottom;verticalAlign=top;align=center;fillStyle=solid;fontColor=#ffffff;" vertex="1" parent="1">
                    <mxGeometry x="132.25" y="90" width="100" height="33" as="geometry"/>
                </mxCell>
                <mxCell id="30" style="edgeStyle=none;html=1;entryX=1;entryY=0.25;entryDx=0;entryDy=0;dashed=1;endArrow=none;endFill=0;" edge="1" parent="1" source="29" target="11">
                    <mxGeometry relative="1" as="geometry"/>
                </mxCell>
                <mxCell id="29" value="Main controller for the server" style="shape=note2;boundedLbl=1;whiteSpace=wrap;html=1;size=25;verticalAlign=top;align=center;" vertex="1" parent="1">
                    <mxGeometry x="580" y="370" width="120" height="80" as="geometry"/>
                </mxCell>
            </root>
        </mxGraphModel>
    </diagram>
</mxfile>